<svg version="1.1" xmlns="http://www.w3.org/2000/svg" xmlns:xlink="http://www.w3.org/1999/xlink" width="214.93357" height="174.1388" viewBox="0,0,214.93357,174.1388"><g transform="translate(-192.53322,-212.9306)"><g fill="#c9161b" stroke="none" stroke-width="0.5" stroke-miterlimit="10"><path d="M347.38448,243.05773l0.00371,-0.32492c-0.1988,0.01521 -0.31341,0.01521 -0.31341,0.01521h-1.23881c-1.22101,0 -4.66932,0.01478 -5.37762,-0.08398c-1.76452,-0.24602 -3.44038,-0.93971 -5.18895,-1.28113c0,0 -1.0168,-0.20336 -2.15719,-0.85368c-0.88065,0.82409 -2.19015,1.56705 -4.42113,2.50444c-1.5871,0.66685 -3.4358,0.2225 -5.15369,0.33375c0,0 -6.50375,0 -6.50375,-6.50375c0,-0.5512 0.04672,-1.0557 0.13223,-1.51742c-0.02862,-0.0258 -0.05713,-0.05173 -0.08554,-0.07777l-0.02048,-0.02048c-0.28352,0.1556 -0.57003,0.31149 -0.85965,0.4684c-2.35944,1.27832 -4.53413,3.06964 -7.13592,3.72667c-2.7301,0.68943 -5.62991,0.13862 -8.44486,0.20793c0,0 -6.50375,0 -6.50375,-6.50375c0,-0.38551 0.02285,-0.74815 0.06584,-1.08931c-1.76923,-0.28804 -3.57323,-0.32122 -5.35853,-0.49148c0,0 -0.4432,-0.04432 -1.08602,-0.22574c-0.05842,0.41099 -0.15289,0.81276 -0.31041,1.19839c-0.80769,1.97725 -2.16907,3.3879 -3.77999,4.46642c-0.3745,2.24641 -1.96568,3.83759 -1.96568,3.83759l-1.23881,1.23881c-1.66059,1.63542 -3.40214,3.21492 -5.32705,4.52903c0,0 -5.41145,3.60763 -9.01908,-1.80382c-3.60763,-5.41145 1.80382,-9.01908 1.80382,-9.01908c0.35807,-0.22857 0.70151,-0.47863 1.03368,-0.74402c-0.1367,-0.56114 -0.21337,-1.19063 -0.21337,-1.8968c0,-6.01989 5.57203,-6.46775 6.40112,-6.50108c0.44626,-1.92349 1.85426,-4.95792 6.29669,-4.95792c0.84661,0 1.58301,0.1102 2.22355,0.30192c1.80005,-3.83425 6.47586,-3.36667 6.47586,-3.36667c2.25623,0.23431 4.53434,0.31161 6.7687,0.70293c1.37492,0.24079 2.63178,1.00695 4.01611,1.18588c2.36382,0.30553 4.7667,-0.06286 7.15019,-0.06286h1.85822c0,0 2.38661,0 4.26835,1.44574c0.59449,-0.40772 1.15577,-0.8624 1.66268,-1.39905l0.61941,-0.61941c0,0 4.59885,-4.59885 9.19769,0c1.46559,1.46559 1.99705,2.93119 2.04093,4.24793l3.58974,-0.51282c0,0 0.52234,-0.07462 1.29073,-0.03257c0.43666,-3.16778 3.15467,-5.60744 6.44249,-5.60744c3.59192,0 6.50375,2.91183 6.50375,6.50375c0,2.07304 -0.9699,3.91954 -2.48066,5.11049c0.85962,0.09845 1.7598,0.15445 2.79036,0.15445h1.23881c0,0 1.94761,0 3.71125,1.06579c0.4253,-0.15009 0.89498,-0.27146 1.41359,-0.35789c6.41527,-1.06921 7.48448,5.34605 7.48448,5.34605c0.22858,1.4164 0.45716,2.83281 0.68574,4.24921l0.02216,3.01406c0,0 0,4.2597 -3.44737,5.88439c1.97001,0.00025 3.93997,0.0019 5.91,0.00665l7.10756,0.63944c0,0 6.47704,0.58883 5.88822,7.06586c-0.58883,6.47704 -7.06586,5.88822 -7.06586,5.88822l-6.51935,-0.59937c-1.96647,0.00602 -3.93286,0.00668 -5.89934,0.00668c0,0 -6.50375,0 -6.50375,-6.50375c0,-3.54331 1.93043,-5.15619 3.68785,-5.89035c-6.16547,-0.22152 -6.16547,-6.49775 -6.16547,-6.49775z"/><path d="M327.25381,341.23343c-6.50375,0 -6.50375,-6.50375 -6.50375,-6.50375v-1.85822c0,0 0,-6.50375 6.50375,-6.50375c6.50375,0 6.50375,6.50375 6.50375,6.50375v1.85822c0,0 0,6.50375 -6.50375,6.50375z"/><path d="M333.96846,353.0419l10.80141,-1.19061c2.62923,-0.59121 5.28913,-1.07041 7.93097,-1.6103c-0.20102,-0.774 -0.39329,-1.55194 -0.64678,-2.30535c0,0 -2.05667,-6.17 4.11333,-8.22667c6.17,-2.05667 8.22667,4.11333 8.22667,4.11333c0.15903,0.48057 0.40863,2.2251 0.86407,3.00706c1.98169,-0.1822 4.92229,0.27932 6.43737,4.06703c2.41543,6.03859 -3.62315,8.45402 -3.62315,8.45402c-1.87049,0.73626 -3.77257,1.35202 -5.69545,1.8904c-0.01761,0.90317 -0.2543,1.91379 -0.81333,3.03185c-2.63565,5.2713 -7.65963,3.37758 -8.57926,2.97578c-0.11164,0 -0.22327,0 -0.3349,0c0,0 -3.56397,0 -5.41537,-2.63827c-0.11069,0.02411 -0.22135,0.04834 -0.33199,0.07268l-3.82331,0.42798c-0.08472,0.55038 -0.24439,1.13851 -0.49528,1.76572c-2.41543,6.03859 -8.45402,3.62315 -8.45402,3.62315l-3.5356,-1.4333c-5.55477,-3.23235 -11.05787,-5.84108 -16.77849,-8.69863c0,0 -5.81714,-2.90857 -2.90857,-8.7257c2.90857,-5.81714 8.7257,-2.90857 8.7257,-2.90857c3.75776,1.88085 7.42546,3.64535 11.07176,5.55632c1.56078,-1.05866 3.2642,-1.24792 3.2642,-1.24792z"/><path d="M255.90671,358.60565c-1.57739,-6.30957 4.73217,-7.88696 4.73217,-7.88696l2.47762,-0.61941c0,0 6.30957,-1.57739 7.88696,4.73217c0.38527,1.54108 0.30004,2.79986 -0.04884,3.82231c0.43048,-0.19747 0.91282,-0.36718 1.45296,-0.50222c1.45766,-0.36441 2.66277,-0.30789 3.65419,-0.00546c1.18614,-1.26014 2.86951,-2.04694 4.73665,-2.04694c2.97948,0 5.49101,2.00352 6.26085,4.7368c3.59898,-2.68429 7.55188,0.28039 7.55188,0.28039c3.24008,2.43183 6.40404,4.96853 9.72025,7.29548c2.90942,2.0415 6.07977,3.70277 8.93153,5.82407l0.98336,-0.17398c0,0 6.50375,0 6.50375,6.50375c0,6.50375 -6.50375,6.50375 -6.50375,6.50375l-3.97188,-0.17398c-2.49918,-1.14013 -4.88041,-2.43045 -7.18597,-3.82595c-1.0441,0.28351 -1.84966,0.28351 -1.84966,0.28351c-1.03234,0 -2.06468,0 -3.09703,0h-1.23881c0,0 -6.50375,0 -6.50375,-6.50375c0,-0.90872 0.12697,-1.69047 0.34542,-2.36299c-1.30852,-0.98342 -2.61809,-1.97468 -3.93797,-2.9639c0,0 -1.76748,-1.32561 -2.46951,-3.46176c-0.57932,0.3764 -1.22233,0.66307 -1.90932,0.84029c0.06666,1.69625 -0.54239,3.68445 -2.97702,5.30754c-5.41145,3.60763 -9.01908,-1.80382 -9.01908,-1.80382l-1.77513,-2.83473c-0.32706,-1.17712 -0.65413,-2.35423 -0.9812,-3.53135c0,0 -0.48842,-1.95367 0.16542,-3.95855c-0.87266,0.46424 -1.56954,0.63846 -1.56954,0.63846l-2.47762,0.61941c0,0 -6.30957,1.57739 -7.88696,-4.73217z"/><path d="M199.03696,247.70326c2.70246,0 4.28198,1.12294 5.20518,2.43559c0.33037,0.02149 0.66064,0.04203 0.98887,0.04203c2.89056,0 5.78114,-0.01153 8.67167,0c1.36883,0.00546 2.74351,0.14205 4.11062,0.12254c0.44716,-0.07935 0.93399,-0.12254 1.46403,-0.12254c0.07468,0 0.1485,0.00085 0.22147,0.00255c5.80395,-0.7267 10.99256,-3.59412 16.97099,-3.71648c-0.87523,-1.1078 -1.39764,-2.50721 -1.39764,-4.02864c0,-3.59192 2.91183,-6.50375 6.50375,-6.50375c3.59192,0 6.50375,2.91183 6.50375,6.50375c0,3.47911 -2.73179,6.32017 -6.16739,6.49521c0.71702,0.94085 1.21214,2.2402 1.21214,4.03468c0,6.50375 -6.50375,6.50375 -6.50375,6.50375c-2.22282,-0.0578 -4.40731,0.44795 -6.57909,1.10619l0.71046,1.42232c1.48702,3.46529 7.46782,17.39625 7.64631,17.86082c2.88163,7.50015 4.83517,15.52458 6.82819,23.30163c0.51694,2.01716 1.11152,4.01812 1.67733,6.02514c1.26998,1.24261 2.57817,3.35249 1.55666,6.32965c0.06633,0.34776 0.12859,0.69637 0.1863,1.04593c0.05648,0.34218 0.05225,7.01634 0.05225,9.49438c0,0 0,6.50375 -6.50375,6.50375c-6.50375,0 -6.50375,-6.50375 -6.50375,-6.50375c0,-2.61638 0.49566,-5.27043 0.05225,-7.84896c-0.04235,-0.24629 -0.08735,-0.49199 -0.13476,-0.73718c-0.10655,-0.0854 -0.21015,-0.1748 -0.31032,-0.26882c-1.12784,-1.05848 -1.54403,-2.70504 -2.56554,-3.86648c-2.02005,-2.29678 -4.34455,-4.30675 -6.51683,-6.46013l-8.27025,-10.16508c0,0 -2.68563,-3.30539 -1.03557,-6.73985c-0.81275,-0.54239 -1.49648,-1.26295 -1.99534,-2.10584c-0.86429,2.57759 -3.29914,4.43477 -6.16774,4.43477c-3.59192,0 -6.50375,-2.91183 -6.50375,-6.50375c0,-2.51143 1.42349,-4.69039 3.50765,-5.77405c-0.02622,-0.07264 -0.05185,-0.14649 -0.07687,-0.22155c-2.05667,-6.17 4.11333,-8.22667 4.11333,-8.22667c0.12461,-0.03439 0.25284,-0.0737 0.38422,-0.11744c1.00655,-1.07495 1.93433,-2.28658 2.24845,-3.60683c0.33776,-1.41959 0.45973,-2.93316 0.48535,-4.47025c-2.65972,-0.05922 -5.32471,-0.1915 -7.87481,-0.1915c-1.81253,0 -5.94622,0.11681 -7.44412,-0.49507c-1.31752,-0.5382 -2.23252,-1.76576 -3.34878,-2.64864l-1.90491,-5.83766c0,0 0,-6.50375 6.50375,-6.50375zM227.67938,287.92704c-0.20777,-0.61553 -0.42114,-1.22833 -0.64077,-1.83792c-0.08727,0.36163 -0.20476,0.71147 -0.34965,1.04671c0.40284,0.27484 0.73679,0.5557 0.99042,0.79121zM224.18254,278.94679l-0.09569,0.04784c0.0534,0.03243 0.10629,0.06559 0.15867,0.0995c-0.02098,-0.04912 -0.04197,-0.09823 -0.06298,-0.14734z"/><path d="M243.01472,365.39023c-6.50375,0 -6.50375,-6.50375 -6.50375,-6.50375v-0.61941c0.22001,-0.46024 -0.2645,-1.00601 -0.55219,-1.42727c0,0 -2.90857,-5.81714 2.90857,-8.7257c5.81714,-2.90857 8.7257,2.90857 8.7257,2.90857c0.58381,1.29731 1.38602,2.51704 1.75145,3.89193c0.28743,1.08145 0.11599,2.23498 0.17398,3.35247v0.61941c0,0 0,6.50375 -6.50375,6.50375z"/><path d="M196.86905,305.61764c0,-3.59192 2.91183,-6.50375 6.50375,-6.50375c3.59192,0 6.50375,2.91183 6.50375,6.50375c0,3.59192 -2.91183,6.50375 -6.50375,6.50375c-3.59192,0 -6.50375,-2.91183 -6.50375,-6.50375z"/><path d="M255.40283,216.1136c1.40003,0 2.49869,0.30138 3.36084,0.77438c0.6967,-1.48237 2.9962,-5.20122 7.98691,-3.53766c6.17,2.05667 4.11333,8.22667 4.11333,8.22667l-1.23881,3.71643c0,0 -1.94322,5.82965 -7.71851,4.26693v2.34808c0,1.44528 0.0817,2.89287 0,4.33584c-0.014,0.2472 -0.08946,0.6532 0.14651,0.7282c0,0 3.60763,5.41145 -1.80382,9.01908c-5.41145,3.60763 -9.01908,-1.80382 -9.01908,-1.80382c-0.68402,-1.19372 -1.66464,-2.26103 -2.05205,-3.58116c-0.37133,-1.26534 -0.27906,-7.40777 -0.27906,-8.69814v-9.29108c0,0 0,-6.50375 6.50375,-6.50375z"/><path d="M360.39199,237.48308c0,-3.59192 2.91183,-6.50375 6.50375,-6.50375c3.59192,0 6.50375,2.91183 6.50375,6.50375c0,3.59192 -2.91183,6.50375 -6.50375,6.50375c-3.59192,0 -6.50375,-2.91183 -6.50375,-6.50375z"/><path d="M398.4854,265.04661c6.50375,0 6.50375,6.50375 6.50375,6.50375l-0.08398,2.9c-0.50225,1.41188 -0.8389,2.89415 -1.50675,4.23565c-0.22452,0.451 -0.88899,0.57206 -1.11166,1.02398c-0.28478,0.57796 -0.05546,1.32201 -0.3312,1.90435c-1.58922,3.35628 -2.05,3.02115 -4.24228,5.47104c-1.2011,1.34223 -2.13882,2.93658 -3.49787,4.11862c-0.20557,0.1788 -0.42193,0.34793 -0.64609,0.50996c0.55237,0.05554 1.08435,0.1802 1.58716,0.36521c0.77047,-1.70285 2.39235,-3.49516 5.80655,-3.49516c6.50375,0 6.50375,6.50375 6.50375,6.50375l-1.90491,5.83766c-1.99337,1.99337 -3.97284,4.37764 -6.171,6.10209c-1.96866,1.5444 -4.29494,2.99952 -6.56231,4.36668c1.04369,-0.08956 2.24708,0.11288 3.61017,0.79442c5.81714,2.90857 2.90857,8.7257 2.90857,8.7257l-4.37987,4.50024c-1.89438,0.52279 -3.04959,1.5419 -4.73401,2.21258c-1.53234,3.69582 -5.99433,3.69582 -5.99433,3.69582c-0.82587,0 -2.27115,0 -3.09703,0c0,0 -0.98614,0 -2.19044,-0.384c-0.2769,3.33685 -3.07289,5.95865 -6.48123,5.95865c-3.59192,0 -6.50375,-2.91183 -6.50375,-6.50375c0,-3.59192 2.91183,-6.50375 6.50375,-6.50375c0.76625,0 1.50154,0.13251 2.18423,0.37587c0.18609,-3.09353 1.93207,-4.57881 3.56574,-5.29192c0.20313,-0.50563 0.46066,-0.94319 0.75426,-1.32184c-1.23928,-1.82867 -1.23928,-3.98229 -1.23928,-3.98229v-1.23881c0,-5.09031 -0.28774,-10.2913 -0.22066,-15.42955c-3.52855,-3.52409 -0.54526,-7.99904 -0.54526,-7.99904c0.52091,-0.72865 0.92169,-1.56627 1.484,-2.25736c0.10988,-2.14449 -0.09868,-4.4057 -0.09868,-6.5231c0,0 0,-2.23321 1.30862,-4.0824c-3.18577,-0.42051 -5.64445,-3.14687 -5.64445,-6.44749c0,-3.59192 2.91183,-6.50375 6.50375,-6.50375c3.59192,0 6.50375,2.91183 6.50375,6.50375c0,1.53417 -0.5312,2.94426 -1.4197,4.0564c2.29187,0.19059 3.67111,1.25587 4.50114,2.469c0.50056,-1.42266 0.9082,-3.02091 1.93285,-4.09317l-0.05905,-0.57403c0,0 0,-6.50375 6.50375,-6.50375z"/></g></g></svg>